<mxfile host="app.diagrams.net" agent="Mozilla/5.0 (Windows NT 10.0; Win64; x64) AppleWebKit/537.36 (KHTML, like Gecko) Chrome/136.0.0.0 Safari/537.36" version="27.0.9">
  <diagram name="Page-1" id="WNEz4E01boF3YGpsWwhJ">
    <mxGraphModel dx="1248" dy="685" grid="1" gridSize="10" guides="1" tooltips="1" connect="1" arrows="1" fold="1" page="1" pageScale="1" pageWidth="827" pageHeight="1169" math="0" shadow="0">
      <root>
        <mxCell id="0" />
        <mxCell id="1" parent="0" />
        <mxCell id="kwdZzr4ioeKvcSgGyuj2-1" value="Sales" style="rounded=0;whiteSpace=wrap;html=1;direction=east;" vertex="1" parent="1">
          <mxGeometry x="30" y="120" width="110" height="60" as="geometry" />
        </mxCell>
        <mxCell id="kwdZzr4ioeKvcSgGyuj2-3" value="&lt;u&gt;Transaction ID&lt;/u&gt;" style="ellipse;whiteSpace=wrap;html=1;" vertex="1" parent="1">
          <mxGeometry x="40" y="10" width="100" height="60" as="geometry" />
        </mxCell>
        <mxCell id="kwdZzr4ioeKvcSgGyuj2-5" value="" style="endArrow=classic;html=1;rounded=0;entryX=0.375;entryY=1;entryDx=0;entryDy=0;entryPerimeter=0;exitX=1;exitY=0;exitDx=0;exitDy=0;" edge="1" parent="1" source="kwdZzr4ioeKvcSgGyuj2-1" target="kwdZzr4ioeKvcSgGyuj2-6">
          <mxGeometry width="50" height="50" relative="1" as="geometry">
            <mxPoint x="150" y="120" as="sourcePoint" />
            <mxPoint x="220" y="70" as="targetPoint" />
          </mxGeometry>
        </mxCell>
        <mxCell id="kwdZzr4ioeKvcSgGyuj2-6" value="date" style="ellipse;whiteSpace=wrap;html=1;" vertex="1" parent="1">
          <mxGeometry x="150" y="30" width="80" height="40" as="geometry" />
        </mxCell>
        <mxCell id="kwdZzr4ioeKvcSgGyuj2-8" value="Product Category" style="ellipse;whiteSpace=wrap;html=1;" vertex="1" parent="1">
          <mxGeometry x="-70" y="10" width="100" height="60" as="geometry" />
        </mxCell>
        <mxCell id="kwdZzr4ioeKvcSgGyuj2-9" value="quantity" style="ellipse;whiteSpace=wrap;html=1;" vertex="1" parent="1">
          <mxGeometry x="-100" y="70" width="70" height="40" as="geometry" />
        </mxCell>
        <mxCell id="kwdZzr4ioeKvcSgGyuj2-12" value="" style="endArrow=classic;html=1;rounded=0;exitX=0;exitY=0;exitDx=0;exitDy=0;" edge="1" parent="1" source="kwdZzr4ioeKvcSgGyuj2-1" target="kwdZzr4ioeKvcSgGyuj2-8">
          <mxGeometry width="50" height="50" relative="1" as="geometry">
            <mxPoint x="40" y="130" as="sourcePoint" />
            <mxPoint x="90" y="80" as="targetPoint" />
          </mxGeometry>
        </mxCell>
        <mxCell id="kwdZzr4ioeKvcSgGyuj2-13" value="" style="endArrow=classic;html=1;rounded=0;entryX=1;entryY=1;entryDx=0;entryDy=0;exitX=0;exitY=0.25;exitDx=0;exitDy=0;" edge="1" parent="1" source="kwdZzr4ioeKvcSgGyuj2-1" target="kwdZzr4ioeKvcSgGyuj2-9">
          <mxGeometry width="50" height="50" relative="1" as="geometry">
            <mxPoint x="-10" y="210" as="sourcePoint" />
            <mxPoint x="40" y="160" as="targetPoint" />
            <Array as="points" />
          </mxGeometry>
        </mxCell>
        <mxCell id="kwdZzr4ioeKvcSgGyuj2-14" value="Customer ID" style="ellipse;whiteSpace=wrap;html=1;" vertex="1" parent="1">
          <mxGeometry x="210" y="70" width="90" height="60" as="geometry" />
        </mxCell>
        <mxCell id="kwdZzr4ioeKvcSgGyuj2-15" value="" style="endArrow=classic;html=1;rounded=0;entryX=0;entryY=0.5;entryDx=0;entryDy=0;exitX=1;exitY=0.5;exitDx=0;exitDy=0;" edge="1" parent="1" source="kwdZzr4ioeKvcSgGyuj2-1" target="kwdZzr4ioeKvcSgGyuj2-14">
          <mxGeometry width="50" height="50" relative="1" as="geometry">
            <mxPoint x="160" y="180" as="sourcePoint" />
            <mxPoint x="210" y="130" as="targetPoint" />
          </mxGeometry>
        </mxCell>
        <mxCell id="kwdZzr4ioeKvcSgGyuj2-16" value="gender" style="ellipse;whiteSpace=wrap;html=1;" vertex="1" parent="1">
          <mxGeometry x="-90" y="170" width="80" height="40" as="geometry" />
        </mxCell>
        <mxCell id="kwdZzr4ioeKvcSgGyuj2-17" value="" style="endArrow=classic;html=1;rounded=0;entryX=1;entryY=0;entryDx=0;entryDy=0;exitX=0;exitY=0.75;exitDx=0;exitDy=0;" edge="1" parent="1" source="kwdZzr4ioeKvcSgGyuj2-1" target="kwdZzr4ioeKvcSgGyuj2-16">
          <mxGeometry width="50" height="50" relative="1" as="geometry">
            <mxPoint x="50" y="190" as="sourcePoint" />
            <mxPoint x="100" y="140" as="targetPoint" />
          </mxGeometry>
        </mxCell>
        <mxCell id="kwdZzr4ioeKvcSgGyuj2-18" value="age" style="ellipse;whiteSpace=wrap;html=1;" vertex="1" parent="1">
          <mxGeometry x="-100" y="120" width="60" height="40" as="geometry" />
        </mxCell>
        <mxCell id="kwdZzr4ioeKvcSgGyuj2-19" value="" style="endArrow=classic;html=1;rounded=0;entryX=1;entryY=0.5;entryDx=0;entryDy=0;exitX=0;exitY=0.5;exitDx=0;exitDy=0;" edge="1" parent="1" source="kwdZzr4ioeKvcSgGyuj2-1" target="kwdZzr4ioeKvcSgGyuj2-18">
          <mxGeometry width="50" height="50" relative="1" as="geometry">
            <mxPoint x="30" y="180" as="sourcePoint" />
            <mxPoint x="80" y="130" as="targetPoint" />
          </mxGeometry>
        </mxCell>
        <mxCell id="kwdZzr4ioeKvcSgGyuj2-20" value="" style="endArrow=classic;html=1;rounded=0;entryX=0.5;entryY=1;entryDx=0;entryDy=0;" edge="1" parent="1" target="kwdZzr4ioeKvcSgGyuj2-3">
          <mxGeometry width="50" height="50" relative="1" as="geometry">
            <mxPoint x="90" y="120" as="sourcePoint" />
            <mxPoint x="140" y="70" as="targetPoint" />
          </mxGeometry>
        </mxCell>
        <mxCell id="kwdZzr4ioeKvcSgGyuj2-21" value="Price per Unit" style="ellipse;whiteSpace=wrap;html=1;" vertex="1" parent="1">
          <mxGeometry x="90" y="210" width="100" height="60" as="geometry" />
        </mxCell>
        <mxCell id="kwdZzr4ioeKvcSgGyuj2-22" value="Total Amount" style="ellipse;whiteSpace=wrap;html=1;" vertex="1" parent="1">
          <mxGeometry x="180" y="150" width="100" height="50" as="geometry" />
        </mxCell>
        <mxCell id="kwdZzr4ioeKvcSgGyuj2-23" style="edgeStyle=orthogonalEdgeStyle;rounded=0;orthogonalLoop=1;jettySize=auto;html=1;exitX=1;exitY=0.75;exitDx=0;exitDy=0;entryX=0;entryY=0.3;entryDx=0;entryDy=0;entryPerimeter=0;" edge="1" parent="1" source="kwdZzr4ioeKvcSgGyuj2-1" target="kwdZzr4ioeKvcSgGyuj2-22">
          <mxGeometry relative="1" as="geometry" />
        </mxCell>
        <mxCell id="kwdZzr4ioeKvcSgGyuj2-24" style="edgeStyle=orthogonalEdgeStyle;rounded=0;orthogonalLoop=1;jettySize=auto;html=1;exitX=0.75;exitY=1;exitDx=0;exitDy=0;entryX=0.274;entryY=0.063;entryDx=0;entryDy=0;entryPerimeter=0;" edge="1" parent="1" source="kwdZzr4ioeKvcSgGyuj2-1" target="kwdZzr4ioeKvcSgGyuj2-21">
          <mxGeometry relative="1" as="geometry" />
        </mxCell>
        <mxCell id="kwdZzr4ioeKvcSgGyuj2-25" value="Customers" style="rounded=0;whiteSpace=wrap;html=1;" vertex="1" parent="1">
          <mxGeometry x="-210" y="950" width="120" height="60" as="geometry" />
        </mxCell>
        <mxCell id="kwdZzr4ioeKvcSgGyuj2-26" value="Transactions" style="rounded=0;whiteSpace=wrap;html=1;" vertex="1" parent="1">
          <mxGeometry x="-70" y="440" width="120" height="60" as="geometry" />
        </mxCell>
        <mxCell id="kwdZzr4ioeKvcSgGyuj2-27" value="Categories" style="rounded=0;whiteSpace=wrap;html=1;" vertex="1" parent="1">
          <mxGeometry x="-350" y="400" width="120" height="60" as="geometry" />
        </mxCell>
        <mxCell id="kwdZzr4ioeKvcSgGyuj2-28" value="Products" style="rounded=0;whiteSpace=wrap;html=1;" vertex="1" parent="1">
          <mxGeometry x="-590" y="610" width="120" height="60" as="geometry" />
        </mxCell>
        <mxCell id="kwdZzr4ioeKvcSgGyuj2-29" value="Transaction_Details" style="rounded=0;whiteSpace=wrap;html=1;" vertex="1" parent="1">
          <mxGeometry x="-280" y="740" width="120" height="60" as="geometry" />
        </mxCell>
        <mxCell id="kwdZzr4ioeKvcSgGyuj2-30" value="make" style="html=1;whiteSpace=wrap;aspect=fixed;shape=isoRectangle;" vertex="1" parent="1">
          <mxGeometry x="-400" y="890" width="100" height="60" as="geometry" />
        </mxCell>
        <mxCell id="kwdZzr4ioeKvcSgGyuj2-31" value="of" style="html=1;whiteSpace=wrap;aspect=fixed;shape=isoRectangle;" vertex="1" parent="1">
          <mxGeometry x="-460" y="510" width="83.34" height="50" as="geometry" />
        </mxCell>
        <mxCell id="kwdZzr4ioeKvcSgGyuj2-32" value="show" style="html=1;whiteSpace=wrap;aspect=fixed;shape=isoRectangle;" vertex="1" parent="1">
          <mxGeometry x="-440" y="660" width="100" height="60" as="geometry" />
        </mxCell>
        <mxCell id="kwdZzr4ioeKvcSgGyuj2-33" value="show" style="html=1;whiteSpace=wrap;aspect=fixed;shape=isoRectangle;" vertex="1" parent="1">
          <mxGeometry x="-160" y="610" width="100" height="60" as="geometry" />
        </mxCell>
        <mxCell id="kwdZzr4ioeKvcSgGyuj2-35" value="" style="endArrow=none;html=1;rounded=0;entryX=0.257;entryY=0.773;entryDx=0;entryDy=0;entryPerimeter=0;" edge="1" parent="1" target="kwdZzr4ioeKvcSgGyuj2-31">
          <mxGeometry width="50" height="50" relative="1" as="geometry">
            <mxPoint x="-510" y="610" as="sourcePoint" />
            <mxPoint x="-449" y="550" as="targetPoint" />
          </mxGeometry>
        </mxCell>
        <mxCell id="kwdZzr4ioeKvcSgGyuj2-36" value="" style="endArrow=none;html=1;rounded=0;entryX=0.187;entryY=1.034;entryDx=0;entryDy=0;entryPerimeter=0;" edge="1" parent="1" target="kwdZzr4ioeKvcSgGyuj2-27">
          <mxGeometry width="50" height="50" relative="1" as="geometry">
            <mxPoint x="-400" y="520" as="sourcePoint" />
            <mxPoint x="-350" y="470" as="targetPoint" />
          </mxGeometry>
        </mxCell>
        <mxCell id="kwdZzr4ioeKvcSgGyuj2-37" value="" style="endArrow=none;html=1;rounded=0;entryX=0.325;entryY=0.886;entryDx=0;entryDy=0;entryPerimeter=0;" edge="1" parent="1" target="kwdZzr4ioeKvcSgGyuj2-31">
          <mxGeometry width="50" height="50" relative="1" as="geometry">
            <mxPoint x="-500" y="610" as="sourcePoint" />
            <mxPoint x="-450" y="560" as="targetPoint" />
          </mxGeometry>
        </mxCell>
        <mxCell id="kwdZzr4ioeKvcSgGyuj2-38" value="" style="endArrow=none;html=1;rounded=0;entryX=0.193;entryY=0.325;entryDx=0;entryDy=0;entryPerimeter=0;" edge="1" parent="1" target="kwdZzr4ioeKvcSgGyuj2-32">
          <mxGeometry width="50" height="50" relative="1" as="geometry">
            <mxPoint x="-470" y="650" as="sourcePoint" />
            <mxPoint x="-420" y="600" as="targetPoint" />
          </mxGeometry>
        </mxCell>
        <mxCell id="kwdZzr4ioeKvcSgGyuj2-41" value="" style="endArrow=none;html=1;rounded=0;entryX=0.692;entryY=0.764;entryDx=0;entryDy=0;entryPerimeter=0;exitX=0;exitY=0.5;exitDx=0;exitDy=0;" edge="1" parent="1" source="kwdZzr4ioeKvcSgGyuj2-29" target="kwdZzr4ioeKvcSgGyuj2-32">
          <mxGeometry width="50" height="50" relative="1" as="geometry">
            <mxPoint x="-410" y="770" as="sourcePoint" />
            <mxPoint x="-360" y="720" as="targetPoint" />
          </mxGeometry>
        </mxCell>
        <mxCell id="kwdZzr4ioeKvcSgGyuj2-43" value="" style="endArrow=none;html=1;rounded=0;entryX=0.667;entryY=0.821;entryDx=0;entryDy=0;entryPerimeter=0;exitX=-0.002;exitY=0.584;exitDx=0;exitDy=0;exitPerimeter=0;" edge="1" parent="1" source="kwdZzr4ioeKvcSgGyuj2-29" target="kwdZzr4ioeKvcSgGyuj2-32">
          <mxGeometry width="50" height="50" relative="1" as="geometry">
            <mxPoint x="-290" y="765" as="sourcePoint" />
            <mxPoint x="-370" y="710" as="targetPoint" />
          </mxGeometry>
        </mxCell>
      </root>
    </mxGraphModel>
  </diagram>
</mxfile>
